<?xml version="1.0" standalone="no"?>
<!DOCTYPE svg PUBLIC "-//W3C//DTD SVG 20010904//EN"
 "http://www.w3.org/TR/2001/REC-SVG-20010904/DTD/svg10.dtd">
<svg version="1.0" xmlns="http://www.w3.org/2000/svg"
 width="900.000000pt" height="507.000000pt" viewBox="0 0 900.000000 507.000000"
 preserveAspectRatio="xMidYMid meet">
<metadata>
Created by potrace 1.10, written by Peter Selinger 2001-2011
</metadata>
<g transform="translate(0.000000,507.000000) scale(0.100000,-0.100000)"
fill="#000000" stroke="none">
<path d="M0 2569 l0 -2502 95 92 c52 50 105 96 117 101 13 6 32 16 43 22 17
12 37 24 120 75 11 7 30 17 42 22 11 5 24 15 28 20 3 6 15 11 26 11 19 0 26
11 47 80 6 19 11 112 11 205 1 142 4 184 22 250 12 44 23 121 25 170 2 50 5
101 6 115 1 33 -19 130 -32 145 -29 35 -16 154 25 220 14 24 27 78 27 120 0
35 -15 116 -25 131 -8 13 -37 152 -37 177 0 11 7 43 15 72 16 55 19 57 118 99
43 18 50 51 16 80 -18 15 -20 24 -14 64 8 53 18 77 49 111 45 50 121 50 176
-1 l33 -29 -6 -100 c-7 -132 1 -216 22 -224 9 -4 21 1 28 12 8 9 32 24 55 33
62 23 69 42 30 83 -29 30 -31 36 -22 67 6 19 10 49 10 67 0 68 102 125 181
101 51 -15 64 -41 73 -138 6 -73 5 -77 -23 -115 -17 -22 -31 -45 -31 -51 0
-18 40 -64 57 -64 8 0 26 -9 40 -20 36 -28 45 -25 70 19 13 23 37 45 60 56 21
10 41 23 45 28 3 6 4 43 1 83 -3 39 -3 83 1 97 8 35 77 67 143 67 45 0 56 -4
88 -35 41 -38 41 -28 12 -180 -9 -44 -20 -81 -26 -83 -18 -6 -12 -48 8 -66 24
-22 30 -18 66 33 21 32 25 44 16 55 -15 18 -3 153 15 171 19 19 140 38 163 26
13 -7 20 -27 25 -73 9 -74 9 -70 0 -128 -4 -25 -14 -50 -23 -57 -14 -11 -14
-12 2 -13 9 0 17 4 17 9 0 5 13 11 29 14 35 7 91 53 91 75 0 8 -7 23 -15 32
-8 9 -16 39 -17 71 -2 44 2 60 22 87 23 30 27 32 90 32 69 0 83 -7 108 -56 14
-27 -3 -162 -23 -184 -20 -23 -19 -40 6 -66 21 -22 21 -22 61 -4 66 30 74 42
53 86 -22 48 -16 120 14 163 20 27 28 31 69 31 72 0 107 -27 121 -90 16 -74
14 -93 -14 -134 -30 -44 -30 -54 -6 -83 24 -29 65 -30 109 -3 32 20 33 23 27
63 -4 23 -11 59 -17 79 -9 30 -8 42 8 69 23 39 61 53 120 44 68 -10 94 -44 94
-120 0 -38 -6 -68 -15 -81 -15 -20 -20 -70 -7 -78 13 -8 98 16 123 35 22 16
23 19 7 36 -14 15 -16 30 -11 76 5 50 10 61 37 80 25 17 44 22 95 21 55 0 67
-4 83 -24 11 -13 16 -30 12 -39 -3 -9 -10 -43 -14 -77 -4 -34 -15 -73 -25 -87
-15 -23 -15 -31 -3 -63 20 -55 48 -61 106 -21 36 26 48 41 49 63 7 76 16 120
30 136 17 19 111 42 135 33 8 -3 25 -20 38 -37 20 -27 23 -44 24 -122 l1 -90
38 -9 c37 -9 90 -53 135 -112 l23 -30 -5 54 c-3 29 -14 68 -25 86 -10 18 -22
63 -26 104 -6 65 -5 75 16 106 15 22 32 35 46 35 30 0 35 13 19 50 -18 45 -5
108 29 137 63 54 144 8 165 -93 7 -31 9 -67 6 -80 -5 -17 1 -34 18 -57 14 -18
30 -46 36 -62 l12 -30 15 22 c13 19 25 23 68 23 44 0 53 3 64 24 11 19 11 28
-2 47 -8 13 -20 47 -27 74 -21 86 18 135 109 135 41 0 54 -10 66 -50 4 -14 16
-38 27 -53 19 -26 19 -30 4 -67 -22 -56 -7 -92 47 -116 23 -10 59 -36 79 -56
32 -33 40 -37 61 -29 14 6 28 15 32 20 3 6 14 11 24 11 10 0 28 11 40 24 18
19 21 31 16 54 -3 17 -13 36 -21 43 -15 12 -18 50 -8 121 6 39 11 48 41 62 90
43 159 4 157 -89 -1 -28 -5 -58 -9 -67 -11 -28 1 -46 49 -76 25 -15 50 -37 57
-49 7 -12 16 -20 21 -16 10 5 9 16 -13 152 l-12 74 32 29 c46 41 107 40 150
-4 28 -28 31 -38 31 -92 0 -40 -5 -65 -16 -77 -14 -15 -12 -20 29 -53 49 -40
105 -48 145 -20 29 20 28 45 -4 100 -22 38 -25 51 -19 91 10 65 23 89 61 109
33 18 34 18 78 -4 64 -30 96 -111 64 -161 -16 -26 12 -68 56 -86 43 -18 57
-36 63 -85 6 -45 12 -48 36 -22 18 20 23 87 8 96 -5 4 -19 26 -30 49 -17 34
-20 54 -15 93 12 89 44 125 104 119 14 -1 31 -3 38 -4 26 -2 62 -53 62 -87 0
-18 5 -36 10 -39 15 -9 12 -48 -5 -81 -19 -37 -1 -67 41 -72 16 -2 36 -9 44
-16 34 -29 51 -27 86 11 36 39 43 76 21 102 -8 9 -21 34 -29 56 -14 35 -14 43
-2 60 8 10 14 39 14 63 0 65 30 109 77 114 55 7 89 -3 124 -36 26 -24 30 -35
25 -60 -4 -17 -6 -56 -6 -87 1 -41 -4 -62 -20 -81 -30 -39 -26 -64 11 -72 17
-3 44 -6 60 -6 18 0 35 -9 47 -25 11 -14 25 -25 31 -25 20 0 35 45 36 111 0
38 6 74 14 82 13 17 93 47 122 47 32 0 75 -47 92 -101 21 -63 21 -98 2 -123
-24 -32 -19 -89 10 -116 33 -31 58 -18 66 35 7 39 30 65 60 65 9 0 33 7 53 15
39 17 49 52 21 75 -8 7 -15 18 -15 25 0 7 -7 18 -15 25 -11 9 -15 32 -15 79 0
62 3 70 31 99 38 38 64 46 123 38 61 -9 92 -46 98 -113 4 -42 0 -60 -19 -95
l-24 -42 23 -18 c13 -10 34 -21 48 -24 14 -3 53 -17 88 -31 55 -23 65 -25 87
-13 36 19 42 53 16 89 -16 22 -21 44 -21 91 0 34 -5 70 -11 82 -15 28 5 72 51
108 33 26 46 30 98 30 40 0 64 -5 72 -14 6 -8 21 -16 32 -18 13 -2 29 -19 41
-40 16 -32 17 -43 8 -69 -6 -18 -11 -43 -11 -56 0 -13 -7 -38 -16 -55 -15 -30
-15 -31 18 -65 18 -19 51 -42 73 -52 22 -10 59 -37 81 -59 l41 -42 68 66 c66
65 67 65 50 90 -22 34 -44 110 -38 132 3 13 -4 22 -24 31 -27 13 -27 14 -9 25
11 6 36 28 55 49 48 52 84 68 139 61 25 -3 53 -9 63 -14 27 -15 59 -74 59
-109 0 -17 5 -40 12 -51 10 -15 9 -24 -2 -44 -20 -38 8 -66 66 -66 34 0 51 -7
77 -30 51 -44 64 -82 44 -128 -22 -51 -40 -187 -34 -258 3 -33 14 -99 26 -149
11 -49 21 -109 21 -132 0 -23 5 -54 12 -68 9 -19 8 -31 -1 -52 -7 -16 -15 -89
-18 -168 -3 -77 -9 -148 -14 -157 -16 -31 -9 -74 21 -133 16 -32 30 -71 30
-86 0 -15 9 -67 21 -116 12 -48 19 -104 16 -124 -7 -55 23 -92 168 -204 21
-16 48 -39 59 -50 11 -11 35 -32 52 -46 45 -36 155 -133 235 -207 38 -34 73
-62 79 -62 7 0 10 786 10 2530 l0 2530 -4500 0 -4500 0 0 -2501z"/>
</g>
</svg>
